<svg id="Capa_1" enable-background="new 0 0 512 512" height="512" viewBox="0 0 512 512" width="512" xmlns="http://www.w3.org/2000/svg"><g><path d="m412.65 232.349h-26.779c-27.708 0-50.701 20.536-54.581 47.186-7.693-4.079-16.455-6.4-25.753-6.4h-26.777c-30.132 0-54.684 24.286-55.145 54.311-7.558-3.896-16.117-6.111-25.189-6.111h-26.776c-30.133 0-54.686 24.287-55.147 54.311-7.557-3.897-16.115-6.111-25.188-6.111h-26.776c-30.419 0-55.166 24.748-55.166 55.167v72.298c0 8.284 6.716 15 15 15h107.109 107.111 107.109.001.001 107.109c8.284 0 15-6.716 15-15v-209.484c.001-30.419-24.745-55.167-55.163-55.167zm-373.277 192.351c0-13.877 11.289-25.167 25.166-25.167h26.777c13.877 0 25.166 11.29 25.166 25.167v57.3h-77.109zm107.109 0v-48.2c0-13.877 11.29-25.167 25.168-25.167h26.775c13.878 0 25.168 11.29 25.168 25.167v105.5h-77.111zm184.221 57.3h-77.109v-105.5-48.2c0-13.877 11.289-25.166 25.166-25.166h26.777c13.877 0 25.166 11.289 25.166 25.166zm107.111 0h-77.109v-194.484c0-13.877 11.289-25.167 25.166-25.167h26.779c13.876 0 25.164 11.29 25.164 25.167z"/><path d="m501.892 74.565c-1.765-5.43-6.459-9.388-12.109-10.208l-53.254-7.737-23.818-48.259c-2.528-5.12-7.742-8.361-13.451-8.361-5.71 0-10.924 3.241-13.451 8.361l-23.817 48.259-53.254 7.737c-5.65.82-10.345 4.778-12.109 10.208-1.765 5.43-.293 11.391 3.795 15.377l38.535 37.565-9.097 53.038c-.965 5.628 1.349 11.315 5.967 14.671 2.614 1.899 5.709 2.865 8.819 2.865 2.387 0 4.783-.569 6.978-1.723l47.634-25.041 47.636 25.041c2.194 1.153 4.591 1.723 6.978 1.723h.045c8.274-.013 14.977-6.724 14.977-15 0-1.151-.13-2.273-.375-3.352l-8.959-52.223 38.537-37.565c4.086-3.984 5.558-9.945 3.793-15.376zm-68.919 36.965c-3.535 3.446-5.149 8.411-4.314 13.277l5.293 30.855-27.713-14.568c-4.369-2.297-9.59-2.297-13.959 0l-27.712 14.568 5.292-30.855c.834-4.866-.778-9.831-4.314-13.277l-22.419-21.854 30.982-4.502c4.887-.709 9.11-3.778 11.295-8.205l13.855-28.076 13.857 28.076c2.186 4.427 6.409 7.496 11.295 8.205l30.98 4.502z"/></g></svg>